HIERARCHY
ROOT Hips
{
  OFFSET 148.815 91.189 9.18464
  CHANNELS 6 Xposition Yposition Zposition Zrotation Xrotation Yrotation
  JOINT ToSpine
  {
    OFFSET -2.69724 7.43032 -0.144315
    CHANNELS 3 Zrotation Xrotation Yrotation
    JOINT Spine
    {
      OFFSET -0.0310711 10.7595 1.96963
      CHANNELS 3 Zrotation Xrotation Yrotation
      JOINT Spine1
      {
        OFFSET 13.1342 3.43533 0.764692
        CHANNELS 3 Zrotation Xrotation Yrotation
        JOINT Neck
        {
          OFFSET 29.8703 7.82586 -0.130764
          CHANNELS 3 Zrotation Xrotation Yrotation
          JOINT Head
          {
            OFFSET 9.52751 0.295786 -0.907742
            CHANNELS 3 Zrotation Xrotation Yrotation
            End Site
            {
              OFFSET 16.4037 0.713936 2.7358
            }
          }
        }
        JOINT LeftShoulder
        {
          OFFSET 27.5574 4.95586 2.47156
          CHANNELS 3 Zrotation Xrotation Yrotation
          JOINT LeftArm
          {
            OFFSET 1.20734 -0.998971 20.1238
            CHANNELS 3 Zrotation Xrotation Yrotation
            JOINT LeftForeArm
            {
              OFFSET 26.8049 -0.0536703 -0.155908
              CHANNELS 3 Zrotation Xrotation Yrotation
              JOINT LeftHand
              {
                OFFSET 26.6817 0 0.320147
                CHANNELS 3 Zrotation Xrotation Yrotation
                End Site
                {
                  OFFSET 18.6119 0 0.382219
                }
              }
            }
          }
        }
        JOINT RightShoulder
        {
          OFFSET 27.5927 4.71444 -2.65209
          CHANNELS 3 Zrotation Xrotation Yrotation
          JOINT RightArm
          {
            OFFSET 2.83739 -1.17114 -18.7564
            CHANNELS 3 Zrotation Xrotation Yrotation
            JOINT RightForeArm
            {
              OFFSET 28.839 -0.0548439 1.22491
              CHANNELS 3 Zrotation Xrotation Yrotation
              JOINT RightHand
              {
                OFFSET 26.5114 0 -0.101894
                CHANNELS 3 Zrotation Xrotation Yrotation
                End Site
                {
                  OFFSET 18.2168 0 0
                }
              }
            }
          }
        }
      }
    }
  }
  JOINT LeftUpLeg
  {
    OFFSET -4.76168 -1.9167 -10.2353
    CHANNELS 3 Zrotation Xrotation Yrotation
    JOINT LeftLeg
    {
      OFFSET 2.55951 -42.0585 -8.02213
      CHANNELS 3 Zrotation Xrotation Yrotation
      JOINT LeftFoot
      {
        OFFSET 3.16357 -42.5282 -3.95426
        CHANNELS 3 Zrotation Xrotation Yrotation
        JOINT LeftToeBase
        {
          OFFSET 0.346054 -6.02161 12.8035
          CHANNELS 3 Zrotation Xrotation Yrotation
          End Site
          {
            OFFSET 0.134235 -1.35082 5.13018
          }
        }
      }
    }
  }
  JOINT RightUpLeg
  {
    OFFSET -4.94151 -1.41743 10.6446
    CHANNELS 3 Zrotation Xrotation Yrotation
    JOINT RightLeg
    {
      OFFSET -2.56294 -42.0364 -7.94377
      CHANNELS 3 Zrotation Xrotation Yrotation
      JOINT RightFoot
      {
        OFFSET -3.0952 -42.555 -4.02241
        CHANNELS 3 Zrotation Xrotation Yrotation
        JOINT RightToeBase
        {
          OFFSET -0.0828122 -6.13587 12.8035
          CHANNELS 3 Zrotation Xrotation Yrotation
          End Site
          {
            OFFSET -0.131328 -1.35082 5.13018
          }
        }
      }
    }
  }
}
MOTION
Frames:	19
Frame Time:	0.0333333
134.148 96.3648 24.6228 -175.865 -85.1385 79.7486 -70.1915 0 88.8779 81.1698 65.1432 -14.7676 6.55247 14.2708 -4.15891 -115.941 15.7399 -166.871 -158.818 50.2228 -146.201 1.01157 -12.924 -8.07022 -99.9861 51.6623 -147.126 12.5431 3.76739 -73.001 0.420956 0.000576806 0.35866 -2.58781 7.39163 49.1676 -70.9101 -30.5567 56.848 9.73884 -61.4826 25.3643 1.8745 0.0571969 2.49238 8.96147 43.4468 60.9536 -16.5805 75.8183 -0.191327 -14.9741 -3.66129 1.11717 0.886135 -3.64194 4.81322 -57.1653 -6.4492 87.721 0.905179 33.9568 2.29894 -20.7614 -4.28317 2.41027 2.39077 -32.0706 -13.1727 
135.617 95.9684 24.3044 95.0271 -79.9304 -6.3119 -70.1915 0 88.8779 73.8546 64.0882 -4.41412 8.96164 12.9874 -1.9745 -119.218 17.8958 -167.707 -166.772 52.4901 -141.079 0.995744 -14.7859 -10.1838 -76.9144 54.795 -159.118 16.5232 3.14652 -78.8959 0.420956 0.000576806 0.35866 -2.59366 6.6597 52.8275 -74.1643 -32.6409 61.426 9.5438 -53.4598 24.6538 1.6633 0.0600065 2.88633 -6.36328 35.5676 71.2343 -19.1803 78.0967 8.53128 -18.7008 4.6763 3.50426 -2.11291 2.92234 3.37045 -52.1787 -4.68075 89.8246 0.822393 35.5865 10.8891 -17.4215 -4.29402 2.10255 0.317587 -32.5649 -27.9777 
137.414 95.499 23.4069 82.5031 -73.1239 -16.244 -70.1915 0 88.8779 70.8996 64.1922 1.86544 10.5432 13.1621 0.88808 -122.496 20.7776 -168.528 -171.913 55.4433 -139.988 0.49212 -19.0772 -15.152 -61.9281 51.6515 -162.337 20.0819 2.31433 -83.0431 0.420956 0.000576806 0.35866 -2.24665 5.99672 51.5883 -74.8027 -33.5553 71.9204 10.579 -46.4236 25.3222 1.22307 0.0372029 2.21984 -21.9206 28.4701 79.8904 -12.2371 75.7971 10.6287 -20.062 9.9754 5.07792 -4.40802 8.91114 1.35484 -48.8026 -3.10925 90.9673 -0.627829 36.0712 18.3526 -14.9838 -4.41767 1.84086 0.992664 -34.6205 -21.7728 
139.392 94.8694 22.4517 79.6475 -67.713 -16.417 -70.1915 0 88.8779 74.0358 63.9724 3.5431 10.1728 13.2075 1.54914 -125.189 23.1506 -168.291 -176.022 57.6243 -138.35 0.174191 -21.4573 -16.8552 -50.6381 47.2451 -162.404 25.7547 2.56296 -84.0359 0.420956 0.000576806 0.35866 -1.84473 5.37914 48.7088 -72.3719 -32.5488 84.039 12.0088 -36.7285 26.7741 0.629195 0.0132576 1.27774 -37.2323 21.0052 84.4958 -6.86629 69.6121 8.58283 -14.5124 6.47706 3.13683 -3.14356 7.69131 -1.29842 -47.6112 -3.32539 89.1181 -2.03533 34.7146 30.1923 -13.2578 2.1566 1.95424 2.04488 -34.1661 -16.8085 
141.56 93.9872 21.2772 75.1503 -61.0907 -16.9963 -70.1915 0 88.8779 71.2683 62.9642 10.4893 11.1213 12.582 3.42013 -128.03 25.3748 -169.249 -179.76 60.0376 -137.009 0.234421 -21.513 -16.247 -42.4814 38.9834 -164.348 26.4814 3.91263 -81.5555 0.420956 0.000576806 0.35866 -1.62796 5.07103 46.6975 -72.1846 -28.2836 90.401 15.9185 -25.1672 33.0403 0.370544 0.00182127 0.36915 -46.9004 14.7276 85.0241 -3.04085 62.286 10.2786 -7.84323 2.46836 1.2961 -6.32392 13.2638 1.16991 -44.3503 -4.48302 87.8488 -1.9492 34.7551 30.3329 -13.531 6.56398 2.15744 2.4516 -21.0195 -4.03087 
142.777 92.8854 19.6937 69.2482 -52.851 -17.1478 -70.1915 0 88.8779 64.987 62.1443 19.0949 10.9159 12.2366 7.1352 -127.386 25.9996 -179.355 -169.639 64.2376 -150.211 0.519142 -22.0731 -13.2689 -39.1092 29.4272 -165.725 27.994 4.62163 -80.7327 0.420956 0.000576806 0.35866 -1.6513 5.00382 47.5762 -85.0548 -20.4364 87.848 15.9987 -19.9469 40.0305 0.275919 -0.00018493 0.0647343 -50.5739 12.4258 82.4914 -1.32871 56.3811 12.8696 -4.69215 -3.63095 0.0687818 -7.18824 12.2633 5.61015 -39.2168 -3.98629 92.6357 -0.606256 35.9663 15.9561 -14.4751 6.05379 2.31291 2.48607 -19.5256 4.51027 
143.548 91.7827 17.1948 68.3155 -43.622 -14.8779 -70.1915 0 88.8779 67.176 63.492 13.8195 6.94624 11.1626 13.4565 -129.499 27.6321 173.02 -162.429 67.687 -161.805 0.458847 -21.2359 -14.2252 -40.407 19.3372 -163.611 28.6089 3.69347 -82.6042 0.420956 0.000576806 0.35866 -1.61578 4.87175 47.7572 -90.465 -11.1987 89.9094 9.67217 -10.6423 42.8114 0.623218 0.0027506 -0.188088 -54.063 9.17495 79.2022 -0.109834 49.2299 16.0815 -5.01354 -9.28341 -0.595523 3.97903 -8.44736 -1.68636 -36.7393 -0.912948 104.971 1.17691 37.798 2.81825 -15.9333 6.29488 2.58415 3.0972 -24.2205 1.08175 
144.275 91.033 14.963 66.0568 -34.8606 -14.3721 -70.1915 0 88.8779 66.2059 64.9694 14.7244 3.98382 11.9426 15.0796 -130.137 30.8612 165.181 -157.931 72.2699 -168.105 0.333338 -20.7576 -15.8351 -42.087 11.4349 -161.75 27.8822 2.32982 -84.9732 0.420956 0.000576806 0.35866 -1.72957 5.06085 48.6583 -98.2628 -1.72215 89.9845 7.81941 -7.50466 46.622 0.950313 0.00634709 0.146068 -51.9888 8.0958 77.7085 0.622072 43.4576 16.3791 -6.37859 -15.6532 -1.39753 4.65619 -8.49328 -7.37847 -33.1579 -6.37283 106.293 1.44194 39.0618 -2.52506 -16.6844 3.98954 2.5785 2.96842 -22.9942 1.83366 
144.426 90.9115 12.8191 66.7795 -27.04 -12.9302 -70.1915 0 88.8779 72.815 67.6017 8.85745 1.04319 14.2474 12.5732 -127.398 33.0164 154.205 -154.738 76.9373 -170.741 0.137616 -21.4657 -17.2495 -44.4501 6.70257 -159.337 25.973 0.88543 -87.203 0.420956 0.000576806 0.35866 -1.95661 5.30113 51.1451 -108.657 7.66987 89.0921 6.34339 -5.76102 48.1937 0.934789 0.00884969 0.574826 -47.2264 8.4884 80.2241 -1.92911 42.7407 2.53038 -5.66971 -17.0409 -1.59541 5.31021 -11.6631 2.21715 -32.9769 -12.9061 100.66 1.82431 39.1816 1.41061 -15.9773 5.29445 2.53431 2.46498 -23.9244 -10.0164 
144.272 91.1079 11.4828 68.4947 -22.4654 -11.0858 -70.1915 0 88.8779 81.9905 69.832 1.35873 0.54165 17.0518 9.26271 -124.323 34.3005 147.341 -165.019 80.4285 -159.71 -0.0963239 -21.309 -19.6692 -47.0784 4.45451 -155.809 25.174 0.116898 -89.5665 0.420956 0.000576806 0.35866 -2.2903 6.07801 51.6944 -119.044 12.9584 90.2391 5.51351 -4.79845 49.4327 0.836928 0.0123909 0.618686 -42.8923 10.7174 87.0242 -3.43704 46.3873 -8.40871 -2.47194 -14.7327 -1.26288 5.81078 -12.9474 4.35873 -35.1425 -16.2627 98.3336 2.06835 38.4717 3.45631 -13.2109 6.91318 2.11305 2.08106 -24.5802 -17.6414 
144.728 91.3137 10.7984 69.9674 -20.7312 -9.86127 -70.1915 0 88.8779 92.9324 71.7475 -8.46596 -1.28877 19.3486 8.34256 -122.135 35.7023 145.394 174.824 82.0934 -140.129 -0.270218 -20.6794 -22.1813 -47.4246 7.98842 -153.46 26.7279 -0.921254 -90.8174 0.420956 0.000576806 0.35866 -2.06381 6.03238 48.6272 -125.058 14.0827 90.77 3.4114 -3.0357 49.0552 1.02347 0.0166774 0.841091 -42.2063 12.0972 90.9335 -4.06874 48.0747 -11.7416 -2.86628 -14.4592 -1.24114 5.55636 -12.6517 5.80741 -37.1049 -18.338 95.7651 2.13626 37.7035 5.66664 -12.2317 9.20427 1.99344 1.63268 -26.0797 -22.5864 
145.975 91.6079 9.85345 70.1452 -20.5355 -10.7423 -70.1915 0 88.8779 92.6078 73.4977 -8.05254 -1.46068 21.239 8.33152 -120.507 36.9337 145.982 157.287 82.2072 -123.004 -0.35916 -20.077 -23.9953 -47.2089 13.0481 -151.569 27.1363 -1.59152 -92.4368 0.420956 0.000576806 0.35866 -1.73286 5.63028 45.2945 -129.609 14.0306 91.748 4.888 -4.25875 49.4081 1.49614 0.020358 1.04189 -42.7878 10.5478 92.4249 -3.96328 48.3325 -10.1881 -3.7039 -15.8331 -1.3974 4.74887 -10.9327 4.32438 -37.9398 -23.5116 88.288 2.01391 35.8807 11.8288 -9.38879 8.90852 1.39669 1.95019 -23.4495 -20.6007 
146.668 91.6639 9.45805 69.3416 -19.4266 -9.6004 -70.1915 0 88.8779 90.4672 73.6697 -3.83917 -1.41776 21.7814 7.24822 -119.58 37.4468 146.76 145.65 81.312 -112.443 -0.378988 -19.2089 -25.7614 -48.3194 15.2064 -149.015 28.7199 -2.66524 -94.1545 0.420956 0.000576806 0.35866 -1.71786 5.43481 46.1704 -132.651 15.9247 94.9893 5.16221 -4.58675 48.8648 1.46891 0.0200489 1.14126 -40.693 11.3706 91.8585 -4.37995 50.0453 -11.4548 -4.1438 -15.8672 -1.40725 5.27775 -11.9619 4.45495 -39.211 -24.8141 82.2121 1.38993 33.9862 14.0596 -8.66241 8.99981 1.24785 2.10302 -22.2799 -18.4707 
146.995 91.488 9.69394 69.169 -18.7375 -8.41849 -70.1915 0 88.8779 93.0979 73.8931 -6.74557 -2.78424 21.8983 7.79246 -119.434 37.5014 145.596 143.374 81.5596 -110.734 -0.268228 -18.6445 -25.5007 -49.6257 15.9439 -148.454 28.0906 -3.09977 -95.0677 0.420956 0.000576806 0.35866 -1.70992 5.14025 47.8157 -133.882 18.5105 97.222 6.21967 -5.53277 48.7849 1.26621 0.0198214 0.9164 -39.2652 12.4716 91.4566 -4.77799 51.7622 -12.3798 -3.74713 -16.0628 -1.42512 5.29211 -12.1881 6.02223 -40.0426 -23.989 82.1195 1.3113 33.677 9.30074 -9.4836 8.323 1.41493 2.3076 -22.6174 -12.8215 
147.432 91.4839 9.52852 69.1444 -18.6484 -8.72336 -70.1915 0 88.8779 92.5354 73.9509 -7.06957 -3.17368 21.9731 7.72252 -119.623 37.9143 146.235 141.486 81.4883 -109.127 -0.177277 -18.484 -24.6313 -51.1867 16.5525 -148.094 27.3958 -3.44326 -95.8842 0.420956 0.000576806 0.35866 -1.86003 5.46434 48.4211 -136.519 17.3579 98.9262 6.98398 -6.01715 49.6303 1.20075 0.0197484 0.718208 -39.43 11.8932 92.1774 -4.70494 51.8011 -11.5909 -3.4718 -16.8094 -1.50737 4.76072 -11.3097 6.62538 -40.5652 -25.9597 79.4361 1.80867 33.0343 8.35814 -10.3332 8.31462 1.58559 2.58942 -22.735 -6.36259 
147.835 91.4396 9.32667 69.006 -19.2009 -8.34822 -70.1915 0 88.8779 91.6099 73.9479 -5.70894 -2.94514 21.9711 7.67039 -120.772 38.6553 148.078 139.461 81.1688 -108.167 -0.149633 -18.2588 -24.7161 -53.1325 16.3407 -147.956 27.1243 -3.57328 -96.2061 0.420956 0.000576806 0.35866 -1.95967 5.95207 47.3312 -137.557 15.6305 98.7755 8.98683 -7.65057 49.9977 1.37703 0.0199463 0.953866 -39.4715 12.3346 92.1755 -4.86571 52.3037 -12.0742 -3.38783 -17.0475 -1.53275 4.98649 -11.9955 8.64186 -40.9665 -26.7438 76.933 2.57358 32.6438 8.33485 -9.28277 7.89051 1.3714 2.53807 -21.1884 -3.45363 
148.085 91.4273 9.34494 69.3614 -19.9724 -7.56199 -70.1915 0 88.8779 94.3996 74.1245 -8.40867 -3.61416 22.0206 8.31503 -121.09 38.9773 148.442 138.547 81.3143 -108.068 -0.177552 -18.3508 -24.9062 -54.2912 16.2643 -148.303 25.9622 -3.46052 -96.3331 0.420956 0.000576806 0.35866 -1.93095 5.86393 47.3428 -139.027 14.5275 99.5216 9.66374 -8.36184 49.5831 1.43314 0.0200095 0.97045 -39.8666 13.2536 91.7264 -5.08507 52.9222 -12.9171 -3.44191 -17.263 -1.55843 5.42565 -12.9692 10.7282 -41.6378 -25.909 76.1414 2.84776 32.4192 8.55635 -10.475 8.61725 1.62412 2.5349 -21.5083 -5.47437 
148.413 91.3531 9.34688 69.3481 -20.5732 -7.39181 -70.1915 0 88.8779 91.5389 74.3297 -5.80811 -3.00751 22.0217 8.81031 -121.419 39.0602 148.841 138.646 81.2662 -108.686 -0.228558 -18.4628 -25.3493 -54.9332 16.7756 -148.026 24.5162 -3.45671 -96.7906 0.420956 0.000576806 0.35866 -1.96704 5.85797 47.9497 -140.06 14.1428 100.55 10.1543 -8.98995 48.9703 1.37846 0.019948 0.930001 -40.1681 13.4362 91.5736 -4.98976 53.1619 -11.6566 -3.24458 -17.9533 -1.63186 5.15118 -12.4215 9.90633 -41.6299 -25.8389 75.3009 3.33543 32.6133 9.3389 -12.9327 10.1039 2.16312 2.58118 -24.0528 -8.0184 
148.664 91.306 9.25796 69.3994 -21.3478 -7.47673 -70.1915 0 88.8779 90.9646 74.4053 -5.18014 -2.88143 22.0786 8.90398 -122.571 39.5261 150.109 138.344 81.1798 -109.18 -0.223183 -18.3472 -25.5189 -55.0334 17.8373 -147.795 24.7158 -3.81234 -97.472 0.420956 0.000576806 0.35866 -1.97458 5.9512 47.5645 -139.845 13.3339 100.009 10.7635 -9.53235 49.0062 1.45456 0.0200338 0.953258 -40.9337 13.1149 91.3547 -4.85993 52.9851 -10.9309 -3.21026 -18.5788 -1.70188 4.72029 -11.8829 11.3296 -41.4895 -26.2465 74.4451 3.57725 32.8733 8.84984 -12.3192 9.86499 2.02695 2.68596 -23.4826 -5.33964 
